<?xml version="1.0" encoding="UTF-8" standalone="no"?>
<svg
   viewBox="0 0 512 512"
   version="1.1"
   id="svg4"
   sodipodi:docname="circle-down-MODIFIED-bottom-left.svg"
   inkscape:version="1.1 (c68e22c387, 2021-05-23)"
   xmlns:inkscape="http://www.inkscape.org/namespaces/inkscape"
   xmlns:sodipodi="http://sodipodi.sourceforge.net/DTD/sodipodi-0.dtd"
   xmlns="http://www.w3.org/2000/svg"
   xmlns:svg="http://www.w3.org/2000/svg">
  <defs
     id="defs8" />
  <sodipodi:namedview
     id="namedview6"
     pagecolor="#505050"
     bordercolor="#eeeeee"
     borderopacity="1"
     inkscape:pageshadow="0"
     inkscape:pageopacity="0"
     inkscape:pagecheckerboard="0"
     showgrid="false"
     inkscape:zoom="1.625"
     inkscape:cx="256"
     inkscape:cy="148"
     inkscape:window-width="1920"
     inkscape:window-height="1017"
     inkscape:window-x="-8"
     inkscape:window-y="-8"
     inkscape:window-maximized="1"
     inkscape:current-layer="svg4" />
  <!--! Font Awesome Free 6.0.0-beta3 by @fontawesome - https://fontawesome.com License - https://fontawesome.com/license/free (Icons: CC BY 4.0, Fonts: SIL OFL 1.1, Code: MIT License) Copyright 2021 Fonticons, Inc. -->
  <path
     d="m 329.53911,306.91169 -39.59798,-39.59798 61.589,-62.86179 c 9.36916,-9.36917 9.36916,-24.57196 0,-33.94113 l -11.31371,-11.31371 c -8.76813,-8.76812 -24.60732,-9.33381 -33.94113,0 l -61.589,62.86179 -39.59798,-39.59798 c -6.73943,-6.73943 -16.84045,-8.84166 -25.72454,-5.38815 -8.85298,3.47897 -14.86339,11.89354 -15.21694,21.43948 L 159.0203,329.1502 c -0.24748,6.68216 2.2981,13.18754 7.03572,17.92515 5.72297,5.28103 11.40209,7.33624 18.09769,7.0046 l 129.57732,-6.18718 c 9.50139,-0.44194 17.83394,-6.47639 21.26128,-15.33856 3.42735,-8.86217 1.26431,-18.92501 -5.4532,-25.64252 z M 437.01934,74.980664 c -99.9849,-99.984899 -262.05378,-99.984899 -362.038676,0 -99.984899,99.984896 -99.984899,262.053776 0,362.038676 99.984896,99.98489 262.053776,99.98489 362.038676,0 99.98489,-99.9849 99.98489,-262.05378 0,-362.038676 z M 108.92179,403.07821 c -81.105148,-81.10515 -81.098077,-213.05834 0,-294.15642 81.09808,-81.098077 213.05127,-81.105148 294.15642,0 81.10515,81.10515 81.09808,213.05834 0,294.15642 -81.09808,81.09808 -213.05127,81.10515 -294.15642,0 z"
     id="path2" />
</svg>
